# xmcd
#
# Track frame offsets:
#	150
#	11158
#	27790
#	41391
#	58861
#	75317
#	87389
#	103912
#	123224
#	136352
#	147732
#	159287
#
# Disc length: 2417 seconds
#
# Revision: 1
# Processed by: cddbd v1.5.2PL0 Copyright (c) Steve Scherf et al.
# Submitted via: audiograbber 1.83.01
#
DISCID=9a096f0c
DTITLE=Sarah Borges and the Broken Singles - Diamonds in the Dark
DYEAR=2007
DGENRE=
TTITLE0=The Day We Met
TTITLE1=Come Back to Me
TTITLE2=Stop and Think It Over
TTITLE3=Around 9
TTITLE4=Lonely Town of Love
TTITLE5=False Eyelashes
TTITLE6=Modern Trick
TTITLE7=Belle of the Bar
TTITLE8=Open Up Your Back Door
TTITLE9=Lord Only Knows
TTITLE10=Diablito
TTITLE11=Blind Love
EXTD=
EXTT0=
EXTT1=
EXTT2=
EXTT3=
EXTT4=
EXTT5=
EXTT6=
EXTT7=
EXTT8=
EXTT9=
EXTT10=
EXTT11=
PLAYORDER=
